<svg xmlns="http://www.w3.org/2000/svg" width="15.938" height="14.031" viewBox="0 0 15.938 14.031">
  <metadata><?xpacket begin="﻿" id="W5M0MpCehiHzreSzNTczkc9d"?>
<x:xmpmeta xmlns:x="adobe:ns:meta/" x:xmptk="Adobe XMP Core 5.6-c142 79.160924, 2017/07/13-01:06:39        ">
   <rdf:RDF xmlns:rdf="http://www.w3.org/1999/02/22-rdf-syntax-ns#">
      <rdf:Description rdf:about=""/>
   </rdf:RDF>
</x:xmpmeta>
                                                                                                    
                                                                                                    
                                                                                                    
                                                                                                    
                                                                                                    
                                                                                                    
                                                                                                    
                                                                                                    
                                                                                                    
                                                                                                    
                                                                                                    
                                                                                                    
                                                                                                    
                                                                                                    
                                                                                                    
                                                                                                    
                                                                                                    
                                                                                                    
                                                                                                    
                                                                                                    
                           
<?xpacket end="w"?></metadata>
<defs>
    <style>
      .cls-1 {
        fill: #019ec4;
        fill-rule: evenodd;
      }
    </style>
  </defs>
  <path id="Фигура_4" data-name="Фигура 4" class="cls-1" d="M263.305,61.515h-12.48l-0.185-1.984a0.645,0.645,0,0,0-.653-0.573h-1.332a0.629,0.629,0,1,0,0,1.258h0.733c0.4,4.28-.634-6.782.754,8.061a2.389,2.389,0,0,0,.944,1.639,1.947,1.947,0,1,0,3.433.525h3.588A1.921,1.921,0,0,0,259.975,73a1.909,1.909,0,1,0,0-3.814h-7.32a1.22,1.22,0,0,1-1.119-.708l10.475-.591a0.651,0.651,0,0,0,.6-0.475l1.332-5.113a0.636,0.636,0,0,0-.636-0.781h0ZM252.651,71.74a0.65,0.65,0,1,1,.676-0.649A0.665,0.665,0,0,1,252.651,71.74Zm7.324,0a0.65,0.65,0,1,1,.677-0.649A0.664,0.664,0,0,1,259.975,71.74Zm1.479-5.084-10.095.57-0.416-4.452h11.522Z" transform="translate(-248 -58.969)"/>
</svg>
