<?xml version="1.0" encoding="utf-8"?>
<!-- Generator: Adobe Illustrator 17.1.0, SVG Export Plug-In . SVG Version: 6.00 Build 0)  -->
<!DOCTYPE svg PUBLIC "-//W3C//DTD SVG 1.1//EN" "http://www.w3.org/Graphics/SVG/1.1/DTD/svg11.dtd">
<svg version="1.1" id="Layer_1" xmlns="http://www.w3.org/2000/svg" xmlns:xlink="http://www.w3.org/1999/xlink" x="0px" y="0px"
	 width="205.325px" height="185.288px" viewBox="0 0 205.325 185.288" enable-background="new 0 0 205.325 185.288"
	 xml:space="preserve">
<g>
	<defs>
		<rect id="SVGID_1_" width="205.325" height="185.288"/>
	</defs>
	<clipPath id="SVGID_2_">
		<use xlink:href="#SVGID_1_"  overflow="visible"/>
	</clipPath>
	<path clip-path="url(#SVGID_2_)" fill="#019EC4" d="M203.162,46.708C196.15,19.207,172.878,0,146.567,0
		c-16.869,0-32.155,7.867-43.922,22.388C90.887,7.867,75.609,0,58.744,0C32.444,0,9.179,19.206,2.166,46.707
		c-3.738,14.656-4.476,38.059,13.24,66.311c16.267,25.943,44.409,49.95,83.646,71.353c1.119,0.612,2.355,0.916,3.592,0.916
		c1.235,0,2.472-0.304,3.591-0.915c39.248-21.404,67.4-45.411,83.675-71.352C207.633,84.767,206.899,61.365,203.162,46.708
		 M102.644,169.219C8.333,116.438,12.968,65.047,16.7,50.413C21.933,29.894,39.615,15,58.744,15c14.676,0,27.987,8.636,37.483,24.32
		c1.359,2.244,3.791,3.615,6.414,3.615h0.002c2.622,0,5.055-1.37,6.414-3.612C118.563,23.636,131.884,15,146.567,15
		c19.14,0,36.827,14.894,42.06,35.414C192.357,65.046,196.986,116.434,102.644,169.219"/>
	<path clip-path="url(#SVGID_2_)" fill="#D6B56C" d="M164.775,92.176H137.45l-10.265-38.004c-0.884-3.272-3.851-5.545-7.239-5.545
		h-0.005c-3.392,0.002-6.358,2.279-7.238,5.554l-13.283,49.44l-13.286-49.44c-0.871-3.245-3.796-5.515-7.157-5.553
		c-0.028-0.001-0.058-0.001-0.086-0.001c-3.325,0-6.26,2.192-7.197,5.39L64.633,78.1H37.182c-4.143,0-7.5,3.358-7.5,7.5
		s3.357,7.5,7.5,7.5H70.25c3.329,0,6.259-2.194,7.196-5.39l1.13-3.853l13.599,50.613c0.882,3.276,3.851,5.554,7.244,5.554
		c3.392,0,6.363-2.277,7.243-5.554l13.301-49.508l4.502,16.67c0.883,3.27,3.853,5.544,7.241,5.544h33.068c4.143,0,7.5-3.358,7.5-7.5
		C172.275,95.534,168.918,92.176,164.775,92.176"/>
</g>
</svg>
