<?xml version="1.0" encoding="utf-8"?>
<!-- Generator: Adobe Illustrator 17.1.0, SVG Export Plug-In . SVG Version: 6.00 Build 0)  -->
<!DOCTYPE svg PUBLIC "-//W3C//DTD SVG 1.1//EN" "http://www.w3.org/Graphics/SVG/1.1/DTD/svg11.dtd">
<svg version="1.1" id="Layer_1" xmlns="http://www.w3.org/2000/svg" xmlns:xlink="http://www.w3.org/1999/xlink" x="0px" y="0px"
	 width="284.027px" height="235.793px" viewBox="0 0 284.027 235.793" enable-background="new 0 0 284.027 235.793"
	 xml:space="preserve">
<g>
	<defs>
		<rect id="SVGID_1_" width="284.027" height="235.793"/>
	</defs>
	<clipPath id="SVGID_2_">
		<use xlink:href="#SVGID_1_"  overflow="visible"/>
	</clipPath>
	<path clip-path="url(#SVGID_2_)" fill="#848484" d="M284.027,235.793h-0.645c0.018-27.898-22.665-50.608-50.562-50.626
		c-2.217-0.001-4.301-0.865-5.868-2.435c-1.567-1.568-2.429-3.653-2.428-5.87l0.018-0.147c-0.025-13.465-5.277-26.125-14.797-35.656
		c-9.55-9.562-22.252-14.832-35.766-14.84c-4.577-0.003-8.298-3.729-8.295-8.306l0.004-0.132
		c-0.053-27.839-22.709-50.48-50.563-50.498c-4.577-0.002-8.298-3.728-8.296-8.305l0.018-0.147
		C106.795,30.992,84.139,8.352,56.284,8.335c-2.217-0.001-4.301-0.867-5.868-2.436c-1.567-1.568-2.429-3.653-2.428-5.87h0.644
		c-0.001,2.045,0.794,3.969,2.24,5.416c1.445,1.447,3.367,2.244,5.412,2.246c28.253,0.017,51.223,23.016,51.207,51.269l-0.017,0.145
		c0.065,4.165,3.471,7.533,7.651,7.535c28.252,0.017,51.223,23.016,51.206,51.269l-0.002,0.131c0.064,4.163,3.471,7.532,7.65,7.535
		c13.687,0.008,26.55,5.345,36.222,15.029c9.672,9.683,14.993,22.553,14.985,36.239l-0.017,0.146
		c0.031,1.997,0.823,3.871,2.238,5.288c1.446,1.448,3.368,2.245,5.413,2.246C261.072,184.541,284.044,207.54,284.027,235.793"/>
	<path clip-path="url(#SVGID_2_)" fill="#848484" d="M281.501,235.791h-0.644c0.016-26.505-21.534-48.081-48.038-48.098
		c-2.892-0.002-5.61-1.13-7.653-3.175c-2.044-2.046-3.168-4.766-3.167-7.658l0.018-0.146c-0.053-26.447-21.576-47.954-48.039-47.97
		c-5.97-0.004-10.823-4.863-10.82-10.833l0.004-0.132c-0.052-26.447-21.576-47.954-48.038-47.969
		c-5.97-0.004-10.824-4.864-10.82-10.833l0.017-0.147c-0.052-26.447-21.575-47.954-48.038-47.97
		c-5.969-0.004-10.824-4.863-10.82-10.833h0.643c-0.002,5.615,4.563,10.186,10.177,10.19c26.86,0.016,48.698,21.881,48.682,48.741
		l-0.017,0.146c0.065,5.556,4.604,10.058,10.176,10.062c26.859,0.017,48.698,21.881,48.682,48.741l-0.003,0.131
		c0.064,5.557,4.603,10.059,10.175,10.063c26.86,0.015,48.699,21.881,48.682,48.741l-0.017,0.146
		c0.066,5.556,4.604,10.058,10.176,10.061C259.679,187.065,281.518,208.931,281.501,235.791"/>
	<path clip-path="url(#SVGID_2_)" fill="#848484" d="M278.975,235.789h-0.645c0.017-25.112-20.401-45.555-45.513-45.57
		c-3.567-0.002-6.919-1.394-9.44-3.916c-2.52-2.524-3.907-5.877-3.905-9.444l0.018-0.146c-0.025-12.118-4.752-23.507-13.319-32.084
		c-8.596-8.608-20.03-13.352-32.195-13.36c-7.362-0.004-13.348-5.998-13.344-13.36l0.004-0.132
		c-0.055-25.052-20.446-45.426-45.515-45.442c-3.566-0.002-6.918-1.394-9.438-3.917c-2.521-2.523-3.907-5.876-3.906-9.443
		l0.018-0.147C101.74,33.775,81.35,13.401,56.281,13.386c-3.567-0.002-6.919-1.393-9.439-3.917
		c-2.521-2.523-3.908-5.877-3.905-9.443h0.643c-0.004,7.008,5.693,12.712,12.701,12.716c25.467,0.016,46.173,20.747,46.158,46.214
		l-0.017,0.146c0.031,3.347,1.347,6.49,3.716,8.862c2.399,2.401,5.589,3.725,8.983,3.727c25.467,0.016,46.174,20.747,46.159,46.214
		l-0.004,0.132c0.064,6.949,5.735,12.585,12.7,12.589c12.337,0.008,23.933,4.818,32.65,13.548
		c8.719,8.728,13.516,20.33,13.508,32.666l-0.017,0.146c0.064,6.949,5.735,12.584,12.7,12.589
		C258.284,189.591,278.991,210.322,278.975,235.789"/>
	<path clip-path="url(#SVGID_2_)" fill="#848484" d="M276.449,235.788h-0.644c0.015-23.72-19.27-43.028-42.989-43.044
		c-4.242-0.002-8.227-1.656-11.225-4.656c-2.997-3.002-4.646-6.989-4.644-11.231l0.018-0.146
		c-0.054-23.662-19.313-42.902-42.99-42.916c-4.241-0.002-8.228-1.656-11.225-4.657c-2.997-3-4.646-6.99-4.644-11.23l0.005-0.132
		c-0.027-11.442-4.491-22.198-12.581-30.298c-8.12-8.129-18.92-12.61-30.41-12.618c-8.755-0.005-15.873-7.132-15.868-15.886
		l0.018-0.147c-0.027-11.442-4.491-22.198-12.581-30.297c-8.12-8.131-18.92-12.611-30.409-12.618
		c-8.756-0.006-15.874-7.133-15.869-15.888h0.644C41.05,8.425,47.88,15.263,56.28,15.268c11.662,0.007,22.624,4.555,30.864,12.807
		c8.242,8.251,12.777,19.218,12.77,30.88l-0.018,0.146c0.064,8.341,6.867,15.111,15.224,15.116
		c11.663,0.008,22.623,4.555,30.865,12.807c8.242,8.251,12.777,19.218,12.77,30.88l-0.004,0.131
		c0.03,4.022,1.609,7.799,4.454,10.648c2.876,2.878,6.701,4.466,10.77,4.468c24.075,0.016,43.648,19.614,43.634,43.687l-0.017,0.147
		c0.029,4.021,1.609,7.798,4.455,10.648c2.875,2.879,6.699,4.466,10.769,4.467C256.89,192.115,276.465,211.714,276.449,235.788"/>
	<path clip-path="url(#SVGID_2_)" fill="#848484" d="M273.923,235.786h-0.644c0.007-10.815-4.199-20.987-11.841-28.639
		c-7.643-7.652-17.809-11.871-28.625-11.877c-4.915-0.003-9.536-1.921-13.01-5.398c-3.473-3.478-5.385-8.101-5.382-13.017
		l0.018-0.146c-0.055-22.269-18.182-40.374-40.466-40.388c-4.916-0.003-9.537-1.92-13.01-5.398
		c-3.474-3.479-5.386-8.101-5.382-13.017l0.003-0.119c-0.023-10.773-4.226-20.898-11.842-28.523
		c-7.642-7.653-17.808-11.871-28.624-11.877c-10.148-0.007-18.399-8.268-18.392-18.415l0.018-0.146
		c-0.055-22.269-18.182-40.375-40.467-40.389C46.13,18.432,37.879,10.171,37.885,0.023l0.643,0.001
		c-0.005,9.792,7.957,17.764,17.75,17.77c22.682,0.014,41.124,18.479,41.11,41.16L97.37,59.1
		c0.062,9.734,7.997,17.638,17.748,17.643c10.988,0.008,21.315,4.293,29.079,12.066c7.765,7.775,12.038,18.107,12.031,29.094
		l-0.004,0.119c0.027,4.702,1.869,9.118,5.194,12.447c3.352,3.356,7.811,5.206,12.555,5.21c22.681,0.013,41.123,18.477,41.11,41.159
		l-0.018,0.146c0.03,4.697,1.872,9.108,5.193,12.434c3.353,3.356,7.812,5.206,12.555,5.21c10.988,0.006,21.316,4.291,29.08,12.065
		C269.658,214.467,273.931,224.799,273.923,235.786"/>
	<path clip-path="url(#SVGID_2_)" fill="#848484" d="M271.398,235.785h-0.644c0.012-20.935-17.008-37.976-37.941-37.989
		c-5.591-0.003-10.846-2.184-14.796-6.139c-3.951-3.956-6.125-9.213-6.121-14.803l0.017-0.143
		c-0.026-10.096-3.966-19.582-11.103-26.729c-7.166-7.175-16.698-11.13-26.838-11.135c-11.541-0.007-20.924-9.402-20.917-20.942
		l0.004-0.138c-0.029-10.09-3.968-19.575-11.103-26.719c-7.167-7.174-16.698-11.13-26.839-11.136
		c-11.541-0.007-20.924-9.401-20.917-20.941l0.018-0.146C94.191,48.732,90.252,39.245,83.115,32.1
		c-7.166-7.175-16.698-11.13-26.839-11.136c-5.59-0.004-10.845-2.184-14.795-6.139c-3.951-3.956-6.125-9.213-6.122-14.803
		l0.645,0.001C36,5.441,38.107,10.536,41.936,14.368c3.83,3.834,8.921,5.948,14.34,5.951c10.313,0.007,20.007,4.028,27.294,11.325
		c7.288,7.296,11.298,16.995,11.292,27.307l-0.017,0.146c0.062,11.127,9.129,20.165,20.272,20.171
		c10.313,0.006,20.006,4.029,27.294,11.326c7.288,7.296,11.298,16.994,11.292,27.307l-0.004,0.137
		c0.065,11.125,9.132,20.158,20.273,20.165c10.313,0.006,20.006,4.028,27.293,11.325c7.289,7.297,11.299,16.995,11.292,27.307
		l-0.017,0.144c0.028,5.371,2.133,10.418,5.932,14.222c3.829,3.835,8.922,5.948,14.341,5.951
		C254.101,197.165,271.411,214.497,271.398,235.785"/>
	<path clip-path="url(#SVGID_2_)" fill="#848484" d="M268.872,235.783h-0.644c0.006-9.467-3.674-18.369-10.364-25.065
		c-6.689-6.699-15.587-10.391-25.053-10.397c-12.933-0.008-23.449-10.535-23.441-23.469l0.018-0.146
		c-0.027-9.418-3.705-18.271-10.364-24.939c-6.69-6.697-15.587-10.389-25.053-10.394c-12.934-0.009-23.45-10.537-23.441-23.47
		l0.004-0.137c-0.029-9.417-3.706-18.267-10.365-24.933c-6.69-6.698-15.587-10.39-25.053-10.396
		C102.183,82.43,91.667,71.902,91.675,58.97l0.018-0.145c-0.028-9.419-3.705-18.272-10.365-24.94
		c-6.689-6.698-15.586-10.39-25.053-10.395C43.342,23.482,32.827,12.953,32.834,0.02l0.644,0.001
		c-0.007,12.578,10.219,22.817,22.798,22.825c9.638,0.006,18.697,3.765,25.508,10.584s10.558,15.883,10.553,25.521l-0.018,0.146
		c0.061,12.519,10.261,22.691,22.797,22.698c9.638,0.006,18.697,3.765,25.508,10.584s10.559,15.883,10.553,25.521l-0.003,0.137
		c0.031,6.044,2.396,11.722,6.671,16.002c4.305,4.31,10.033,6.687,16.126,6.69c9.637,0.006,18.696,3.765,25.508,10.585
		c6.811,6.819,10.559,15.882,10.553,25.521l-0.018,0.146c0.029,6.046,2.396,11.726,6.671,16.007
		c4.306,4.312,10.033,6.688,16.126,6.691C252.707,199.691,268.885,215.887,268.872,235.783"/>
	<path clip-path="url(#SVGID_2_)" fill="#848484" d="M266.346,235.782h-0.644c0.006-8.792-3.413-17.06-9.626-23.279
		c-6.212-6.221-14.476-9.65-23.267-9.655c-14.325-0.008-25.974-11.67-25.965-25.997l0.018-0.146
		c-0.028-8.744-3.443-16.961-9.626-23.152c-6.213-6.22-14.476-9.649-23.267-9.654c-14.327-0.009-25.975-11.671-25.965-25.997
		l0.003-0.137c-0.061-18.087-14.789-32.79-32.893-32.8c-6.94-0.005-13.462-2.711-18.367-7.621
		c-4.904-4.911-7.603-11.436-7.598-18.376l0.018-0.146c-0.058-18.091-14.788-32.796-32.894-32.807
		c-6.94-0.004-13.462-2.711-18.367-7.621c-4.903-4.91-7.602-11.436-7.598-18.375h0.644c-0.004,6.768,2.627,13.132,7.41,17.921
		c4.782,4.788,11.143,7.427,17.911,7.431c18.504,0.012,33.549,15.075,33.538,33.579l-0.018,0.145
		c0.029,6.721,2.657,13.036,7.409,17.793c4.784,4.789,11.144,7.428,17.912,7.432c18.504,0.013,33.548,15.075,33.537,33.579
		l-0.004,0.137c0.064,13.91,11.395,25.211,25.322,25.22c8.963,0.005,17.388,3.501,23.723,9.842
		c6.333,6.342,9.819,14.771,9.813,23.735l-0.017,0.147c0.061,13.911,11.394,25.215,25.321,25.224
		C251.312,202.216,266.357,217.278,266.346,235.782"/>
	<path clip-path="url(#SVGID_2_)" fill="#848484" d="M263.821,235.781h-0.644c0.01-16.757-13.614-30.397-30.369-30.407
		c-7.614-0.005-14.772-2.975-20.153-8.362c-5.38-5.387-8.341-12.547-8.336-20.162l0.017-0.146
		c-0.059-16.697-13.657-30.269-30.369-30.279c-7.614-0.005-14.771-2.975-20.152-8.362c-5.381-5.387-8.342-12.548-8.337-20.162
		l0.004-0.12c-0.025-8.073-3.179-15.661-8.887-21.377c-5.736-5.743-13.365-8.909-21.482-8.914
		c-7.614-0.005-14.771-2.975-20.153-8.361c-5.38-5.388-8.341-12.548-8.337-20.162l0.018-0.147
		c-0.028-8.069-3.181-15.652-8.887-21.366c-5.736-5.743-13.366-8.908-21.482-8.913c-7.615-0.005-14.771-2.975-20.152-8.362
		c-5.381-5.387-8.342-12.547-8.337-20.162l0.643,0.001c-0.004,7.442,2.89,14.44,8.149,19.706c5.26,5.266,12.255,8.168,19.697,8.173
		c8.289,0.005,16.08,3.238,21.938,9.102c5.857,5.865,9.08,13.66,9.075,21.949l-0.018,0.146c0.029,7.394,2.92,14.344,8.149,19.58
		c5.259,5.265,12.255,8.169,19.697,8.172c8.289,0.005,16.08,3.238,21.937,9.103c5.857,5.864,9.081,13.659,9.076,21.948l-0.004,0.119
		c0.025,7.401,2.916,14.354,8.148,19.592c5.259,5.266,12.255,8.169,19.697,8.172c17.111,0.012,31.023,13.94,31.014,31.052
		l-0.018,0.146c0.059,15.306,12.524,27.742,27.845,27.752C249.919,204.74,263.831,218.67,263.821,235.781"/>
	<path clip-path="url(#SVGID_2_)" fill="#848484" d="M261.296,235.779h-0.644c0.009-15.363-12.481-27.87-27.845-27.88
		c-17.112-0.01-31.024-13.939-31.014-31.051l0.018-0.146c-0.059-15.305-12.524-27.741-27.845-27.752
		c-8.289-0.005-16.08-3.237-21.937-9.102c-5.858-5.865-9.081-13.66-9.077-21.949l0.005-0.131
		c-0.059-15.305-12.524-27.743-27.846-27.753c-8.288-0.005-16.08-3.237-21.937-9.102c-5.858-5.864-9.081-13.658-9.076-21.948
		l0.018-0.147c-0.028-7.394-2.92-14.344-8.149-19.579c-5.259-5.266-12.254-8.168-19.696-8.172
		c-8.289-0.005-16.08-3.238-21.937-9.103c-5.858-5.865-9.081-13.66-9.076-21.949L25.9,0.016c-0.004,8.117,3.152,15.75,8.887,21.493
		c5.737,5.743,13.366,8.909,21.483,8.914c7.614,0.004,14.771,2.974,20.151,8.361c5.382,5.388,8.342,12.548,8.338,20.162
		l-0.018,0.146c0.06,16.698,13.657,30.27,30.369,30.28c15.719,0.01,28.499,12.805,28.489,28.524l-0.004,0.131
		c0.029,8.069,3.182,15.653,8.888,21.366c5.736,5.742,13.365,8.908,21.482,8.913c15.719,0.01,28.498,12.806,28.489,28.524
		l-0.018,0.146c0.06,16.698,13.657,30.27,30.37,30.28C248.524,207.265,261.304,220.061,261.296,235.779"/>
	<path clip-path="url(#SVGID_2_)" fill="#848484" d="M258.769,235.777h-0.644c0.005-6.768-2.627-13.132-7.41-17.92
		c-4.782-4.789-11.143-7.428-17.91-7.432c-18.504-0.011-33.549-15.075-33.538-33.578l0.018-0.146
		c-0.061-13.913-11.394-25.217-25.321-25.225c-18.504-0.012-33.549-15.074-33.537-33.578l0.003-0.132
		c-0.06-13.912-11.393-25.217-25.321-25.224C96.605,92.53,81.561,77.467,81.572,58.964l0.017-0.147
		c-0.029-6.72-2.657-13.034-7.409-17.793c-4.783-4.789-11.144-7.428-17.911-7.432C37.764,33.581,22.72,18.518,22.731,0.014
		l0.644,0.001C23.364,18.163,38.12,32.937,56.269,32.948c6.939,0.005,13.462,2.711,18.366,7.621
		c4.904,4.91,7.602,11.437,7.599,18.376l-0.018,0.146c0.057,18.091,14.787,32.795,32.893,32.806
		c14.326,0.009,25.974,11.671,25.965,25.997l-0.004,0.132c0.058,18.091,14.787,32.795,32.894,32.807
		c6.939,0.004,13.462,2.71,18.366,7.62c4.904,4.91,7.603,11.435,7.599,18.375l-0.018,0.147
		c0.057,18.091,14.787,32.795,32.894,32.807c6.939,0.004,13.462,2.71,18.366,7.62S258.773,228.838,258.769,235.777"/>
	<path clip-path="url(#SVGID_2_)" fill="#848484" d="M256.244,235.776H255.6c0.004-6.093-2.365-11.823-6.671-16.134
		c-4.306-4.311-10.033-6.687-16.126-6.691c-19.896-0.013-36.073-16.209-36.061-36.106l0.018-0.146
		c-0.03-6.045-2.396-11.726-6.672-16.006c-4.305-4.312-10.032-6.688-16.126-6.691c-9.637-0.006-18.697-3.765-25.508-10.584
		c-6.811-6.82-10.559-15.883-10.553-25.522l0.004-0.119c-0.055-12.525-10.257-22.702-22.797-22.71
		c-9.638-0.006-18.697-3.765-25.509-10.584C82.788,77.664,79.041,68.6,79.047,58.962l0.017-0.147
		c-0.061-12.52-10.261-22.689-22.797-22.697C36.371,36.106,20.194,19.909,20.205,0.012h0.645
		c-0.012,19.542,15.876,35.451,35.417,35.462c12.934,0.008,23.449,10.536,23.441,23.469l-0.018,0.146
		c0.028,9.418,3.706,18.272,10.365,24.939c6.689,6.698,15.587,10.39,25.053,10.394c12.933,0.009,23.448,10.538,23.44,23.47
		l-0.003,0.119c0.05,19.49,15.915,35.335,35.417,35.347c6.266,0.004,12.154,2.447,16.581,6.88c4.428,4.433,6.864,10.324,6.86,16.589
		l-0.017,0.146c0.057,19.483,15.919,35.322,35.417,35.334c6.266,0.003,12.154,2.448,16.581,6.88
		C253.812,223.62,256.248,229.51,256.244,235.776"/>
	<path clip-path="url(#SVGID_2_)" fill="#848484" d="M253.718,235.774h-0.644c0.007-11.185-9.087-20.29-20.273-20.298
		c-10.313-0.006-20.006-4.028-27.293-11.324c-7.289-7.297-11.299-16.995-11.292-27.308l0.017-0.141
		c-0.029-5.373-2.132-10.421-5.932-14.226c-3.83-3.834-8.923-5.947-14.341-5.95c-10.313-0.006-20.006-4.027-27.294-11.324
		c-7.287-7.297-11.298-16.995-11.292-27.308l0.004-0.132c-0.061-11.127-9.13-20.164-20.272-20.171
		c-10.313-0.005-20.006-4.027-27.294-11.324c-7.288-7.297-11.298-16.995-11.292-27.307l0.018-0.146
		c-0.029-5.372-2.133-10.417-5.933-14.222c-3.828-3.833-8.922-5.946-14.34-5.949C34.976,38.63,17.667,21.3,17.68,0.011l0.643,0.001
		c-0.006,10.14,3.937,19.676,11.103,26.851c7.167,7.176,16.698,11.131,26.839,11.136c5.591,0.004,10.846,2.184,14.796,6.139
		s6.124,9.213,6.121,14.804l-0.018,0.145c0.027,10.093,3.967,19.581,11.103,26.726c7.167,7.175,16.698,11.13,26.839,11.136
		c11.54,0.007,20.923,9.401,20.916,20.942l-0.003,0.131c0.027,10.093,3.967,19.581,11.103,26.726
		c7.166,7.174,16.698,11.13,26.838,11.135c5.591,0.003,10.845,2.184,14.796,6.139c3.95,3.956,6.124,9.213,6.121,14.803l-0.018,0.142
		c0.026,10.095,3.966,19.583,11.104,26.73c7.166,7.175,16.698,11.13,26.838,11.136C244.341,214.839,253.725,224.234,253.718,235.774
		"/>
	<path clip-path="url(#SVGID_2_)" fill="#848484" d="M251.192,235.773h-0.644c0.004-4.744-1.841-9.205-5.193-12.562
		c-3.353-3.356-7.811-5.206-12.555-5.209c-22.682-0.014-41.124-18.478-41.11-41.16l0.017-0.145
		c-0.03-4.696-1.871-9.109-5.193-12.435c-3.352-3.355-7.811-5.207-12.555-5.209c-22.682-0.013-41.123-18.478-41.109-41.16
		l0.003-0.137c-0.032-4.694-1.872-9.103-5.193-12.428c-3.352-3.357-7.811-5.206-12.555-5.209
		c-10.988-0.007-21.315-4.292-29.08-12.067c-7.765-7.774-12.037-18.106-12.03-29.093l0.018-0.145
		c-0.03-4.697-1.872-9.109-5.194-12.436c-3.353-3.356-7.812-5.206-12.556-5.209c-22.681-0.014-41.122-18.478-41.109-41.16
		l0.644,0.001c-0.014,22.326,18.139,40.502,40.466,40.515c4.916,0.004,9.536,1.92,13.01,5.398c3.474,3.479,5.385,8.101,5.383,13.017
		l-0.018,0.146c0.026,10.768,4.229,20.889,11.842,28.512c7.643,7.653,17.808,11.87,28.624,11.877
		c4.916,0.003,9.536,1.92,13.01,5.398c3.473,3.478,5.386,8.1,5.382,13.016l-0.004,0.137c0.06,22.266,18.184,40.369,40.466,40.384
		c4.916,0.003,9.537,1.92,13.01,5.398c3.474,3.478,5.386,8.1,5.382,13.016l-0.017,0.147c0.055,22.268,18.182,40.373,40.466,40.387
		c4.915,0.004,9.537,1.921,13.01,5.399C249.284,226.234,251.195,230.857,251.192,235.773"/>
	<path clip-path="url(#SVGID_2_)" fill="#848484" d="M248.667,235.772h-0.644c0.006-8.4-6.825-15.238-15.225-15.244
		c-11.661-0.007-22.623-4.556-30.864-12.807c-8.242-8.252-12.776-19.219-12.769-30.88l0.017-0.146
		c-0.063-8.341-6.867-15.111-15.224-15.116c-24.075-0.015-43.648-19.613-43.634-43.688l0.004-0.137
		c-0.066-8.339-6.869-15.105-15.224-15.11c-24.075-0.015-43.649-19.612-43.634-43.687l0.017-0.146
		c-0.064-8.342-6.866-15.111-15.224-15.116c-11.662-0.007-22.624-4.556-30.865-12.807c-8.242-8.251-12.776-19.219-12.769-30.88
		h0.643c-0.006,11.49,4.461,22.295,12.582,30.425c8.119,8.13,18.918,12.611,30.409,12.618c8.755,0.006,15.874,7.133,15.868,15.887
		l-0.018,0.147c0.027,11.443,4.492,22.198,12.581,30.297c8.12,8.13,18.92,12.611,30.41,12.619
		c8.755,0.004,15.874,7.131,15.868,15.887l-0.004,0.137c0.058,23.658,19.316,42.895,42.99,42.91
		c8.755,0.005,15.874,7.133,15.868,15.887l-0.017,0.147c0.026,11.442,4.491,22.198,12.58,30.297
		c8.12,8.13,18.92,12.611,30.409,12.618C241.554,219.889,248.672,227.016,248.667,235.772"/>
	<path clip-path="url(#SVGID_2_)" fill="#848484" d="M246.141,235.77h-0.644c0.004-7.008-5.693-12.712-12.7-12.717
		c-12.338-0.007-23.933-4.818-32.651-13.547c-8.718-8.728-13.515-20.33-13.507-32.667l0.017-0.145
		c-0.065-6.95-5.735-12.586-12.701-12.59c-12.336-0.007-23.932-4.818-32.649-13.547c-8.719-8.729-13.516-20.331-13.508-32.667
		l0.003-0.124c-0.028-3.35-1.346-6.495-3.716-8.869c-2.399-2.401-5.589-3.726-8.984-3.727c-12.336-0.007-23.932-4.819-32.65-13.548
		c-8.718-8.729-13.515-20.33-13.508-32.666l0.018-0.145c-0.03-3.348-1.347-6.491-3.716-8.863c-2.399-2.402-5.59-3.726-8.984-3.728
		c-12.337-0.007-23.932-4.818-32.651-13.547c-8.718-8.729-13.515-20.33-13.508-32.667l0.644,0.001
		c-0.007,12.164,4.723,23.604,13.32,32.211c8.596,8.608,20.031,13.352,32.195,13.359c3.567,0.002,6.919,1.392,9.439,3.917
		c2.52,2.523,3.907,5.877,3.905,9.443l-0.018,0.145c0.052,25.055,20.444,45.428,45.514,45.444c3.567,0.002,6.919,1.393,9.439,3.917
		c2.521,2.523,3.908,5.877,3.905,9.443l-0.003,0.124c0.023,12.12,4.75,23.513,13.319,32.091c8.596,8.608,20.03,13.353,32.194,13.359
		c3.567,0.002,6.919,1.393,9.44,3.917s3.907,5.877,3.905,9.444l-0.018,0.146c0.026,12.117,4.753,23.507,13.319,32.084
		c8.597,8.608,20.031,13.351,32.196,13.359C240.159,222.415,246.145,228.408,246.141,235.77"/>
	<path clip-path="url(#SVGID_2_)" fill="#848484" d="M243.616,235.768h-0.644c0.003-5.614-4.562-10.186-10.176-10.189
		c-26.861-0.016-48.699-21.881-48.683-48.741l0.017-0.146c-0.031-2.673-1.085-5.181-2.977-7.075
		c-1.922-1.925-4.478-2.986-7.198-2.988c-26.86-0.015-48.699-21.881-48.683-48.741l0.004-0.131
		c-0.064-5.556-4.604-10.058-10.176-10.062c-26.859-0.016-48.698-21.881-48.682-48.741l0.017-0.146
		c-0.065-5.557-4.604-10.059-10.175-10.061c-13.012-0.008-25.242-5.083-34.436-14.289C12.629,25.251,7.569,13.016,7.577,0.005h0.644
		c-0.008,12.839,4.984,24.913,14.058,33.998c9.073,9.084,21.142,14.091,33.981,14.099c5.969,0.004,10.823,4.864,10.819,10.833
		l-0.017,0.146c0.052,26.448,21.576,47.955,48.038,47.97c5.971,0.004,10.824,4.863,10.82,10.833l-0.004,0.133
		c0.053,26.446,21.576,47.952,48.039,47.969c2.891,0.002,5.61,1.13,7.653,3.176c2.044,2.046,3.168,4.765,3.166,7.657l-0.017,0.147
		c0.025,12.792,5.015,24.816,14.058,33.869c9.073,9.085,21.141,14.092,33.981,14.1C238.765,224.939,243.619,229.798,243.616,235.768
		"/>
	<path clip-path="url(#SVGID_2_)" fill="#848484" d="M241.089,235.767h-0.644c0.003-4.223-3.43-7.659-7.651-7.662
		c-28.253-0.017-51.224-23.017-51.207-51.269l0.016-0.145c-0.065-4.164-3.471-7.532-7.651-7.535
		c-28.252-0.018-51.223-23.017-51.206-51.269l0.003-0.131c-0.031-1.998-0.822-3.872-2.238-5.289
		c-1.445-1.447-3.367-2.245-5.413-2.246c-28.252-0.017-51.224-23.016-51.206-51.268l0.016-0.146
		c-0.03-1.998-0.823-3.872-2.238-5.289c-1.445-1.447-3.368-2.245-5.413-2.246C28.005,51.254,5.035,28.255,5.051,0.003h0.643
		C5.678,27.901,28.36,50.611,56.258,50.628c4.577,0.003,8.297,3.729,8.295,8.306l-0.018,0.146
		c0.053,27.839,22.708,50.48,50.563,50.497c2.218,0.002,4.301,0.867,5.868,2.435s2.429,3.653,2.428,5.871l-0.004,0.132
		c0.052,27.839,22.708,50.48,50.562,50.497c2.218,0.001,4.302,0.866,5.869,2.435c1.566,1.568,2.428,3.653,2.427,5.871l-0.017,0.146
		c0.052,27.839,22.708,50.48,50.563,50.497C237.371,227.463,241.092,231.19,241.089,235.767"/>
	<path clip-path="url(#SVGID_2_)" fill="#848484" d="M238.564,235.765h-0.644c0.001-1.371-0.532-2.66-1.501-3.63
		c-0.968-0.969-2.256-1.504-3.626-1.505c-14.362-0.009-27.859-5.609-38.008-15.769c-10.148-10.161-15.732-23.665-15.723-38.027
		l0.016-0.144c-0.031-1.323-0.561-2.564-1.499-3.504c-0.969-0.969-2.257-1.504-3.627-1.504c-14.361-0.01-27.859-5.61-38.008-15.771
		c-10.148-10.161-15.732-23.665-15.723-38.026l0.002-0.131c-0.065-2.77-2.339-5.006-5.126-5.008
		c-14.361-0.008-27.859-5.609-38.007-15.769C66.942,86.816,61.357,73.311,61.366,58.951l0.017-0.145
		c-0.066-2.772-2.34-5.007-5.127-5.009C26.611,53.78,2.508,29.646,2.525,0.001l0.644,0.001
		c-0.018,29.29,23.797,53.134,53.088,53.152c1.542,0.001,2.992,0.602,4.082,1.694c1.09,1.091,1.69,2.541,1.689,4.084l-0.018,0.146
		c0.024,14.142,5.539,27.435,15.535,37.444c10.027,10.039,23.363,15.572,37.552,15.581c3.184,0.002,5.773,2.594,5.772,5.778
		l-0.004,0.132c0.024,14.142,5.538,27.435,15.534,37.443c10.028,10.039,23.364,15.573,37.553,15.581
		c1.542,0.001,2.992,0.603,4.083,1.695c1.089,1.091,1.689,2.542,1.688,4.084l-0.018,0.147c0.052,29.231,23.84,53.006,53.088,53.024
		c1.542,0.001,2.992,0.602,4.081,1.694C237.965,232.772,238.564,234.222,238.564,235.765"/>
	<path clip-path="url(#SVGID_2_)" fill="#848484" d="M236.039,235.763h-0.645c0.002-1.437-1.167-2.605-2.603-2.607
		c-15.035-0.009-29.168-5.872-39.792-16.511c-10.625-10.637-16.472-24.777-16.463-39.812l0.015-0.144
		c-0.064-1.378-1.207-2.481-2.601-2.482c-31.037-0.019-56.273-25.286-56.255-56.323l0.002-0.13c-0.03-0.648-0.297-1.255-0.76-1.718
		c-0.491-0.492-1.146-0.763-1.841-0.763c-31.038-0.02-56.274-25.286-56.255-56.324l0.015-0.144c-0.065-1.379-1.206-2.48-2.601-2.482
		C25.217,56.304-0.019,31.037,0,0h0.644C0.625,30.683,25.572,55.66,56.255,55.679c0.868,0.001,1.684,0.339,2.297,0.953
		c0.614,0.614,0.951,1.431,0.951,2.299l-0.018,0.145c0.051,30.625,24.971,55.534,55.611,55.552c0.868,0.001,1.684,0.339,2.297,0.953
		c0.613,0.615,0.951,1.431,0.95,2.298l-0.004,0.133c0.052,30.623,24.972,55.532,55.611,55.551c1.792,0.001,3.249,1.46,3.248,3.251
		l-0.018,0.147c0.024,14.816,5.8,28.742,16.275,39.229c10.502,10.516,24.474,16.313,39.336,16.322
		C234.583,232.513,236.04,233.972,236.039,235.763"/>
</g>
</svg>
