<svg xmlns="http://www.w3.org/2000/svg" width="12.062" height="13.656" viewBox="0 0 12.062 13.656">
  <metadata><?xpacket begin="﻿" id="W5M0MpCehiHzreSzNTczkc9d"?>
<x:xmpmeta xmlns:x="adobe:ns:meta/" x:xmptk="Adobe XMP Core 5.6-c142 79.160924, 2017/07/13-01:06:39        ">
   <rdf:RDF xmlns:rdf="http://www.w3.org/1999/02/22-rdf-syntax-ns#">
      <rdf:Description rdf:about=""/>
   </rdf:RDF>
</x:xmpmeta>
                                                                                                    
                                                                                                    
                                                                                                    
                                                                                                    
                                                                                                    
                                                                                                    
                                                                                                    
                                                                                                    
                                                                                                    
                                                                                                    
                                                                                                    
                                                                                                    
                                                                                                    
                                                                                                    
                                                                                                    
                                                                                                    
                                                                                                    
                                                                                                    
                                                                                                    
                                                                                                    
                           
<?xpacket end="w"?></metadata>
<defs>
    <style>
      .cls-1 {
        fill: #5a5a5a;
        fill-rule: evenodd;
      }
    </style>
  </defs>
  <path id="Фигура_1" data-name="Фигура 1" class="cls-1" d="M248.624,38.089a2.734,2.734,0,0,0,.39-3.531l6.029-5.623a0.7,0.7,0,0,0-.025-1.032l-2.829-2.64-1.083,1.011,2.264,2.111-1.082,1.009-1.7-1.583-1.082,1.009,1.7,1.583-3.324,3.1a3.259,3.259,0,0,0-3.786.364,2.789,2.789,0,0,0,.1,4.13A3.3,3.3,0,0,0,248.624,38.089Zm-3.4-3.167a1.65,1.65,0,0,1,2.214.047,1.394,1.394,0,0,1,.05,2.065,1.649,1.649,0,0,1-2.214-.047A1.393,1.393,0,0,1,245.228,34.921Z" transform="translate(-243.219 -25.25)"/>
</svg>
