<?xml version="1.0" encoding="utf-8"?>
<!-- Generator: Adobe Illustrator 17.1.0, SVG Export Plug-In . SVG Version: 6.00 Build 0)  -->
<!DOCTYPE svg PUBLIC "-//W3C//DTD SVG 1.1//EN" "http://www.w3.org/Graphics/SVG/1.1/DTD/svg11.dtd">
<svg version="1.1" id="Layer_1" xmlns="http://www.w3.org/2000/svg" xmlns:xlink="http://www.w3.org/1999/xlink" x="0px" y="0px"
	 width="45.548px" height="142.748px" viewBox="0 0 45.548 142.748" enable-background="new 0 0 45.548 142.748"
	 xml:space="preserve">
<polygon points="23.062,0 0,13.524 0,129.023 23.235,142.748 45.548,129.023 45.548,13.524 "/>
<rect x="9.014" y="106.823" fill="#FFFFFF" width="27.537" height="0.536"/>
<rect x="9.014" y="122.481" fill="#FFFFFF" width="27.537" height="0.535"/>
<g>
	<defs>
		<rect id="SVGID_1_" width="45.548" height="142.748"/>
	</defs>
	<clipPath id="SVGID_2_">
		<use xlink:href="#SVGID_1_"  overflow="visible"/>
	</clipPath>
	<path clip-path="url(#SVGID_2_)" fill="#FFFFFF" d="M9.546,114.649h0.013c0.259-0.346,0.645-0.531,1.076-0.531
		c0.917,0,1.495,0.79,1.495,1.654c0,0.89-0.565,1.641-1.501,1.641c-0.425,0-0.818-0.186-1.07-0.525H9.546v2.193H9.014v-4.877h0.532
		V114.649z M9.519,115.732c0,0.611,0.359,1.189,1.023,1.189c0.685,0,1.043-0.551,1.043-1.182c0-0.625-0.391-1.13-1.049-1.13
		C9.918,114.609,9.519,115.147,9.519,115.732"/>
	<polygon clip-path="url(#SVGID_2_)" fill="#FFFFFF" points="16.69,114.35 16.69,112.317 17.248,112.317 17.248,117.327 
		16.69,117.327 16.69,114.868 14.125,114.868 14.125,117.327 13.566,117.327 13.566,112.317 14.125,112.317 14.125,114.35 	"/>
	<polygon clip-path="url(#SVGID_2_)" fill="#FFFFFF" points="21.497,112.835 21.497,112.317 25.191,112.317 21.83,117.414 
		21.391,117.154 24.235,112.835 	"/>
	<path clip-path="url(#SVGID_2_)" fill="#FFFFFF" d="M27.313,117.035c0,0.207-0.166,0.379-0.372,0.379
		c-0.206,0-0.372-0.172-0.372-0.379c0-0.199,0.166-0.365,0.372-0.365C27.147,116.67,27.313,116.836,27.313,117.035"/>
	<path clip-path="url(#SVGID_2_)" fill="#FFFFFF" d="M31.46,112.543l-1.156,1.554l0.013,0.014c0.133-0.047,0.286-0.073,0.439-0.073
		c0.91,0,1.622,0.75,1.622,1.654c0,0.957-0.785,1.721-1.729,1.721c-0.949,0-1.727-0.771-1.727-1.714
		c0-0.459,0.206-0.851,0.459-1.203l1.661-2.265L31.46,112.543z M31.819,115.712c0-0.651-0.525-1.156-1.17-1.156
		c-0.651,0-1.169,0.505-1.169,1.156s0.518,1.183,1.169,1.183C31.301,116.895,31.819,116.363,31.819,115.712"/>
	<path clip-path="url(#SVGID_2_)" fill="#FFFFFF" d="M37.169,115.998v0.518h-0.617v0.81h-0.559v-0.81h-2.565l3.11-4.478h0.014v3.96
		H37.169z M35.993,113.732H35.98l-1.575,2.266h1.588V113.732z"/>
	<path clip-path="url(#SVGID_2_)" fill="#FFFFFF" d="M23.909,29.946c-0.306-0.751-0.699-1.497-1.181-2.237
		c-0.482-0.741-1.039-1.398-1.674-1.974c-0.635-0.576-1.339-1.04-2.114-1.392c-0.776-0.353-1.621-0.529-2.538-0.529
		c-1.338,0-2.438,0.246-3.295,0.74c-0.858,0.494-1.286,1.374-1.286,2.644c0,0.751,0.194,1.403,0.581,1.956
		c0.388,0.552,0.904,1.039,1.551,1.461c0.646,0.424,1.38,0.811,2.202,1.164c0.823,0.352,1.662,0.71,2.52,1.075
		c0.858,0.364,1.698,0.758,2.521,1.18c0.821,0.423,1.556,0.93,2.202,1.516c0.646,0.588,1.162,1.268,1.55,2.044
		s0.582,1.703,0.582,2.784c0,1.151-0.211,2.145-0.634,2.978c-0.424,0.834-0.994,1.522-1.71,2.061
		c-0.716,0.541-1.55,0.939-2.502,1.199c-0.952,0.258-1.968,0.387-3.048,0.387c-0.588,0-1.199-0.055-1.833-0.163
		c-0.634-0.11-1.245-0.232-1.832-0.364c-0.588-0.134-1.123-0.257-1.604-0.366c-0.481-0.108-0.863-0.164-1.145-0.164
		c-0.259,0-0.506,0.041-0.74,0.124c-0.236,0.082-0.482,0.17-0.74,0.264C9.53,45,9.284,43.695,9.002,42.421
		c-0.282-1.274-0.576-2.579-0.882-3.912l0.458-0.246c0.424,0.82,0.935,1.673,1.533,2.561c0.599,0.889,1.275,1.702,2.027,2.439
		c0.751,0.735,1.58,1.35,2.484,1.84c0.905,0.492,1.886,0.737,2.944,0.737c0.68,0,1.338-0.076,1.973-0.229
		c0.635-0.152,1.192-0.392,1.674-0.721c0.482-0.327,0.863-0.756,1.145-1.283c0.282-0.528,0.423-1.18,0.423-1.954
		c0-1.103-0.341-2.024-1.022-2.762c-0.682-0.739-1.528-1.384-2.537-1.936c-1.01-0.552-2.109-1.061-3.295-1.531
		c-1.187-0.469-2.285-0.996-3.296-1.583c-1.01-0.586-1.856-1.277-2.536-2.076c-0.683-0.797-1.023-1.807-1.023-3.027
		c0-0.915,0.177-1.747,0.529-2.499c0.352-0.75,0.828-1.388,1.427-1.916s1.292-0.932,2.079-1.213c0.787-0.283,1.626-0.423,2.52-0.423
		c0.868,0,1.65,0.058,2.344,0.175c0.692,0.118,1.368,0.248,2.026,0.388c0.682,0.141,1.35,0.277,2.009,0.406
		c0.657,0.129,1.361,0.193,2.114,0.193c0,1.057,0.018,2.086,0.053,3.084c0.035,0.998,0.111,2.004,0.229,3.013H23.909z"/>
	<path clip-path="url(#SVGID_2_)" fill="#FFFFFF" d="M30.927,38.358c0-0.529-0.017-2.739-0.05-3.147
		c-0.033-0.409-0.132-0.75-0.298-1.027c-0.165-0.276-0.413-0.501-0.744-0.679c-0.331-0.175-0.783-0.296-1.357-0.363v-0.464
		l5.237-0.331v11.214c0,0.551,0.044,0.987,0.132,1.307c0.088,0.32,0.236,0.562,0.447,0.729c0.209,0.164,0.48,0.28,0.811,0.346
		c0.331,0.067,0.739,0.111,1.224,0.132v0.399c-0.772-0.046-1.55-0.079-2.333-0.1c-0.783-0.023-1.767-0.034-2.54-0.034
		c-0.507,0-1.004,0.011-1.488,0.034c-0.486,0.021-0.982,0.054-1.49,0.1v-0.399c0.441-0.021,0.816-0.065,1.125-0.132
		c0.308-0.066,0.563-0.182,0.762-0.346c0.198-0.167,0.341-0.409,0.43-0.729c0.088-0.32,0.132-0.756,0.132-1.307V38.358z"/>
	<path clip-path="url(#SVGID_2_)" fill="#B3B3B3" d="M35.118,22.6c-0.392,0.14-0.775,0.33-1.135,0.56h0.004
		c-0.26,0.154-0.478,0.403-0.571,0.682c-0.128,0.383,0.042,0.673,0.334,0.811c0.113,0.053,0.097,0.047,0.201,0.105
		c0.819,0.458,1.169,1.414,0.801,2.521c-0.516,1.551-2.25,2.808-3.873,2.808c-2.608,0-2.786-2.883-0.816-4.893
		c1.392-1.423,3.226-2.443,5.07-2.739v0.001l0.009-0.001c0.042,0,0.063,0.034,0.05,0.075C35.181,22.562,35.151,22.59,35.118,22.6"/>
	<path clip-path="url(#SVGID_2_)" fill="#B3B3B3" d="M11.258,63.764c0.105,0.024,0.234,0.046,0.385,0.07
		c0.152,0.023,0.316,0.047,0.491,0.07c0.174,0.024,0.356,0.044,0.542,0.062c0.187,0.017,0.363,0.026,0.526,0.026
		c0.701,0,1.329-0.059,1.883-0.176c0.554-0.116,1.063-0.303,1.524-0.56c0.461-0.257,0.896-0.584,1.305-0.98
		c0.408-0.398,0.823-0.876,1.243-1.437l0.193,0.157l-1.593,3.521c-0.2-0.024-0.404-0.041-0.614-0.052
		c-0.21-0.012-0.414-0.017-0.613-0.017H9.944c-0.338,0-0.677,0.005-1.015,0.017c-0.338,0.011-0.678,0.028-1.016,0.052v-0.21
		c0.42-0.035,0.747-0.1,0.981-0.193c0.233-0.093,0.408-0.239,0.525-0.437c0.116-0.199,0.189-0.458,0.219-0.78
		c0.029-0.321,0.043-0.727,0.043-1.217v-5.851c0-0.49-0.014-0.895-0.043-1.217c-0.03-0.321-0.103-0.58-0.219-0.779
		c-0.117-0.199-0.298-0.345-0.544-0.438c-0.245-0.093-0.577-0.158-0.997-0.193v-0.209c0.397,0.011,0.773,0.022,1.13,0.034
		c0.355,0.012,0.723,0.021,1.104,0.026c0.378,0.006,0.781,0.009,1.208,0.009h1.444c0.817,0,1.635-0.006,2.453-0.017
		c0.817-0.012,1.646-0.03,2.486-0.052c-0.011,0.127-0.02,0.256-0.026,0.384c-0.006,0.129-0.008,0.251-0.008,0.368v0.701
		c0,0.256,0.011,0.517,0.034,0.78c0.024,0.261,0.047,0.551,0.07,0.866l-0.226,0.07c-0.153-0.56-0.354-1.018-0.605-1.375
		c-0.251-0.356-0.544-0.633-0.876-0.832c-0.333-0.198-0.698-0.332-1.095-0.402c-0.397-0.07-0.817-0.106-1.26-0.106
		c-0.818,0-1.636,0.036-2.453,0.106v4.378c0.234,0,0.458-0.006,0.674-0.017c0.216-0.011,0.44-0.018,0.675-0.018
		c0.805,0,1.445-0.16,1.918-0.481c0.472-0.322,0.761-0.908,0.867-1.76h0.21c0,0.42-0.007,0.84-0.017,1.26
		c-0.013,0.421-0.018,0.836-0.018,1.245c0,0.419,0.005,0.839,0.018,1.26c0.01,0.421,0.017,0.841,0.017,1.262h-0.21
		c-0.106-0.491-0.234-0.891-0.386-1.2c-0.151-0.309-0.341-0.546-0.57-0.71c-0.227-0.163-0.51-0.274-0.848-0.333
		c-0.339-0.057-0.742-0.087-1.209-0.087h-1.121V63.764z"/>
	<path clip-path="url(#SVGID_2_)" fill="#B3B3B3" d="M23.01,52.992c0.408,0.023,0.796,0.041,1.164,0.053
		c0.368,0.011,0.798,0.017,1.288,0.017c0.257,0,0.507-0.006,0.753-0.017c0.245-0.012,0.496-0.03,0.754-0.053
		c0.151,0.21,0.403,0.529,0.752,0.955c0.351,0.426,0.751,0.914,1.201,1.462c0.448,0.549,0.93,1.132,1.444,1.751
		c0.514,0.62,1.01,1.224,1.488,1.813c0.479,0.59,0.921,1.139,1.324,1.647c0.403,0.507,0.72,0.926,0.954,1.252h0.035
		c0-0.35,0.003-0.698,0.009-1.042s0.008-0.692,0.008-1.042v-2.032c0-0.747-0.026-1.398-0.079-1.952
		c-0.052-0.555-0.157-1.02-0.314-1.393c-0.158-0.374-0.38-0.66-0.667-0.858c-0.285-0.199-0.662-0.315-1.129-0.351v-0.21
		c0.409,0.023,0.82,0.041,1.235,0.053c0.415,0.011,0.826,0.017,1.235,0.017c0.374,0,0.753-0.006,1.138-0.017
		c0.386-0.012,0.764-0.03,1.138-0.053v0.21c-0.735,0.094-1.24,0.307-1.514,0.64c-0.275,0.332-0.412,0.843-0.412,1.532v9.283h-0.648
		c-0.642-1.003-1.322-1.979-2.041-2.925c-0.718-0.946-1.43-1.844-2.136-2.697c-0.707-0.853-1.39-1.644-2.049-2.373
		c-0.66-0.73-1.253-1.381-1.778-1.953c-0.012,0.304-0.021,0.601-0.028,0.892c-0.005,0.293-0.008,0.59-0.008,0.894v3.065
		c0,1.04,0.02,1.86,0.062,2.461c0.041,0.602,0.139,1.063,0.298,1.384c0.157,0.321,0.391,0.537,0.7,0.648s0.739,0.195,1.287,0.253
		v0.211c-0.595-0.024-1.172-0.041-1.734-0.052c-0.561-0.012-1.138-0.018-1.733-0.018c-0.339,0-0.672,0.006-0.999,0.018
		c-0.326,0.011-0.66,0.028-0.998,0.052v-0.211c0.396-0.058,0.744-0.113,1.042-0.166c0.298-0.052,0.543-0.14,0.735-0.262
		c0.193-0.123,0.339-0.298,0.438-0.526c0.099-0.228,0.155-0.546,0.167-0.954l0.21-8.039c-0.374-0.304-0.783-0.544-1.226-0.719
		c-0.444-0.175-0.899-0.32-1.366-0.438V52.992z"/>
	<path clip-path="url(#SVGID_2_)" fill="#B3B3B3" d="M11.258,81.8c0.105,0.023,0.234,0.046,0.385,0.07
		c0.152,0.023,0.316,0.047,0.491,0.069c0.174,0.025,0.356,0.045,0.542,0.062c0.187,0.017,0.363,0.026,0.526,0.026
		c0.701,0,1.329-0.058,1.883-0.175s1.063-0.303,1.524-0.56c0.461-0.257,0.896-0.584,1.305-0.981
		c0.408-0.397,0.823-0.876,1.243-1.436l0.193,0.157l-1.593,3.52c-0.2-0.023-0.404-0.041-0.614-0.052
		c-0.21-0.011-0.414-0.017-0.613-0.017H9.944c-0.338,0-0.677,0.006-1.015,0.017c-0.338,0.011-0.678,0.029-1.016,0.052v-0.21
		c0.42-0.035,0.747-0.099,0.981-0.192c0.233-0.094,0.408-0.239,0.525-0.438c0.116-0.199,0.189-0.458,0.219-0.78
		c0.029-0.32,0.043-0.726,0.043-1.217v-5.85c0-0.49-0.014-0.896-0.043-1.218c-0.03-0.321-0.103-0.579-0.219-0.779
		c-0.117-0.198-0.298-0.344-0.544-0.438c-0.245-0.092-0.577-0.157-0.997-0.193v-0.209c0.397,0.011,0.773,0.023,1.13,0.035
		c0.355,0.012,0.723,0.021,1.104,0.026c0.378,0.006,0.781,0.009,1.208,0.009h1.444c0.817,0,1.635-0.006,2.453-0.018
		c0.817-0.011,1.646-0.029,2.486-0.052c-0.011,0.128-0.02,0.257-0.026,0.385c-0.006,0.129-0.008,0.251-0.008,0.368v0.7
		c0,0.257,0.011,0.518,0.034,0.78c0.024,0.262,0.047,0.552,0.07,0.867l-0.226,0.069c-0.153-0.56-0.354-1.017-0.605-1.374
		c-0.251-0.356-0.544-0.633-0.876-0.832c-0.333-0.198-0.698-0.333-1.095-0.402c-0.397-0.071-0.817-0.106-1.26-0.106
		c-0.818,0-1.636,0.035-2.453,0.106v4.378c0.234,0,0.458-0.006,0.674-0.018c0.216-0.01,0.44-0.018,0.675-0.018
		c0.805,0,1.445-0.16,1.918-0.481c0.472-0.321,0.761-0.907,0.867-1.759h0.21c0,0.42-0.007,0.84-0.017,1.26
		c-0.013,0.421-0.018,0.835-0.018,1.244c0,0.42,0.005,0.84,0.018,1.261c0.01,0.42,0.017,0.841,0.017,1.261h-0.21
		c-0.106-0.49-0.234-0.89-0.386-1.2c-0.151-0.309-0.341-0.546-0.57-0.71c-0.227-0.162-0.51-0.273-0.848-0.332
		c-0.339-0.058-0.742-0.088-1.209-0.088h-1.121V81.8z"/>
	<path clip-path="url(#SVGID_2_)" fill="#B3B3B3" d="M37.251,82.483h-3.564c-0.831-0.805-1.6-1.632-2.306-2.478
		c-0.707-0.846-1.336-1.743-1.891-2.689c-0.131,0-0.3-0.011-0.505-0.035c-0.205-0.023-0.416-0.049-0.632-0.079
		c-0.218-0.028-0.43-0.064-0.634-0.105c-0.205-0.041-0.374-0.079-0.505-0.113v2.732c0,0.49,0.017,0.896,0.05,1.217
		c0.032,0.321,0.118,0.581,0.257,0.78c0.139,0.198,0.346,0.344,0.623,0.438c0.278,0.093,0.661,0.157,1.149,0.192v0.21
		c-0.502-0.024-1.002-0.041-1.505-0.052c-0.502-0.011-1.003-0.018-1.504-0.018c-0.488,0-0.97,0.007-1.445,0.018
		c-0.476,0.011-0.951,0.028-1.426,0.052v-0.21c0.475-0.035,0.845-0.099,1.109-0.192c0.264-0.094,0.465-0.24,0.604-0.438
		c0.138-0.199,0.224-0.459,0.256-0.78c0.034-0.321,0.049-0.727,0.049-1.217v-5.85c0-0.491-0.015-0.896-0.049-1.218
		c-0.032-0.321-0.118-0.58-0.256-0.779c-0.139-0.198-0.34-0.344-0.604-0.438c-0.264-0.093-0.634-0.158-1.109-0.193v-0.21
		c0.422,0.024,0.845,0.041,1.267,0.053c0.423,0.012,0.844,0.017,1.267,0.017c0.185,0,0.416-0.008,0.693-0.026
		c0.278-0.017,0.57-0.038,0.881-0.061c0.31-0.023,0.623-0.044,0.94-0.061c0.317-0.019,0.6-0.027,0.851-0.027
		c0.568,0,1.149,0.065,1.742,0.193c0.594,0.128,1.13,0.333,1.604,0.613c0.475,0.28,0.864,0.637,1.168,1.069
		c0.304,0.431,0.456,0.945,0.456,1.54c0,0.41-0.083,0.772-0.248,1.087c-0.165,0.315-0.386,0.589-0.664,0.823
		c-0.277,0.234-0.603,0.427-0.979,0.578c-0.376,0.152-0.769,0.263-1.177,0.333c0.184,0.28,0.402,0.595,0.653,0.946
		c0.25,0.35,0.531,0.706,0.841,1.068c0.309,0.362,0.639,0.721,0.989,1.077c0.35,0.357,0.719,0.678,1.109,0.963
		c0.389,0.287,0.789,0.526,1.197,0.718c0.41,0.193,0.826,0.307,1.248,0.342V82.483z M27.214,76.388
		c0.594,0.199,1.208,0.298,1.841,0.298c1.029,0,1.828-0.211,2.396-0.631c0.568-0.42,0.851-1.103,0.851-2.049
		c0-0.386-0.083-0.733-0.248-1.042c-0.165-0.309-0.392-0.578-0.683-0.806c-0.29-0.228-0.623-0.403-1-0.525
		c-0.376-0.123-0.769-0.184-1.177-0.184c-0.331,0-0.653,0.011-0.971,0.035c-0.316,0.024-0.626,0.076-0.929,0.157
		c-0.027,0.561-0.048,1.127-0.06,1.699c-0.014,0.573-0.02,1.192-0.02,1.857V76.388z"/>
	<path clip-path="url(#SVGID_2_)" fill="#B3B3B3" d="M18.509,92.695c-0.222-0.444-0.458-0.876-0.709-1.296
		c-0.252-0.421-0.541-0.794-0.867-1.121c-0.328-0.327-0.703-0.59-1.13-0.789c-0.426-0.198-0.926-0.297-1.498-0.297
		c-0.665,0-1.258,0.163-1.777,0.49c-0.52,0.327-0.964,0.754-1.332,1.279c-0.367,0.526-0.648,1.115-0.84,1.768
		c-0.193,0.654-0.29,1.309-0.29,1.963c0,0.735,0.097,1.434,0.29,2.093c0.192,0.659,0.473,1.234,0.84,1.725
		c0.368,0.49,0.812,0.882,1.332,1.173c0.519,0.293,1.112,0.438,1.777,0.438c0.56,0,1.11-0.055,1.647-0.166
		c0.536-0.111,1.038-0.336,1.505-0.675v-2.259c0-0.794-0.6-1.209-1.803-1.243v-0.211c0.443,0.012,0.853,0.027,1.226,0.044
		c0.374,0.017,0.794,0.026,1.261,0.026c0.432,0,0.865-0.005,1.296-0.017c0.432-0.012,0.864-0.029,1.297-0.053v0.211
		c-0.246,0.011-0.474,0.041-0.684,0.087c-0.21,0.047-0.388,0.123-0.534,0.228c-0.146,0.105-0.263,0.248-0.351,0.429
		c-0.087,0.181-0.131,0.411-0.131,0.692v2.452c-0.806,0.269-1.602,0.516-2.391,0.744c-0.788,0.228-1.549,0.342-2.284,0.342
		c-0.784,0-1.549-0.131-2.296-0.394s-1.416-0.651-2.006-1.165c-0.589-0.514-1.063-1.144-1.417-1.892
		c-0.358-0.747-0.536-1.611-0.536-2.592c0-0.852,0.178-1.649,0.536-2.39c0.354-0.743,0.828-1.381,1.417-1.919
		c0.59-0.537,1.259-0.96,2.006-1.269c0.747-0.31,1.512-0.465,2.296-0.465c0.477,0,0.91,0.021,1.295,0.062
		c0.385,0.041,0.735,0.093,1.051,0.157c0.316,0.065,0.601,0.132,0.858,0.202c0.257,0.069,0.502,0.134,0.736,0.192
		c0,0.187,0.014,0.436,0.043,0.745c0.029,0.309,0.067,0.63,0.114,0.963c0.047,0.333,0.094,0.654,0.14,0.963
		c0.047,0.31,0.088,0.558,0.122,0.745H18.509z"/>
	<path clip-path="url(#SVGID_2_)" fill="#B3B3B3" d="M24.008,88.947c0.491,0.023,0.969,0.041,1.437,0.053
		c0.467,0.011,0.946,0.017,1.437,0.017c0.455,0,0.913-0.006,1.374-0.017c0.461-0.012,0.919-0.03,1.375-0.053v0.21
		c-0.14,0.024-0.295,0.059-0.464,0.105c-0.169,0.047-0.327,0.111-0.473,0.193s-0.266,0.187-0.36,0.315
		c-0.092,0.129-0.139,0.286-0.139,0.473c0,0.129,0.061,0.298,0.184,0.508c0.122,0.21,0.3,0.473,0.533,0.788l2.487,3.364l2.068-3.241
		c0.304-0.491,0.456-0.94,0.456-1.349c0-0.338-0.141-0.609-0.421-0.814c-0.281-0.204-0.596-0.318-0.946-0.342v-0.21
		c0.409,0.023,0.82,0.041,1.235,0.053c0.414,0.011,0.826,0.017,1.234,0.017c0.375,0,0.745-0.006,1.112-0.017
		c0.368-0.012,0.739-0.03,1.114-0.053v0.21c-0.421,0.082-0.795,0.231-1.122,0.447c-0.327,0.216-0.621,0.462-0.885,0.735
		c-0.262,0.275-0.496,0.564-0.701,0.868c-0.203,0.303-0.393,0.577-0.568,0.823l-2.4,3.503v2.575c0,0.431,0.036,0.779,0.105,1.042
		c0.07,0.262,0.184,0.47,0.343,0.621c0.156,0.152,0.369,0.263,0.638,0.333c0.268,0.071,0.608,0.122,1.016,0.157v0.211
		c-0.526-0.024-1.044-0.041-1.559-0.052c-0.514-0.013-1.033-0.018-1.558-0.018c-0.433,0-0.865,0.005-1.297,0.018
		c-0.432,0.011-0.864,0.028-1.296,0.052v-0.211c0.386-0.035,0.71-0.086,0.972-0.157c0.263-0.07,0.473-0.181,0.631-0.333
		c0.157-0.151,0.268-0.359,0.333-0.621c0.063-0.263,0.096-0.611,0.096-1.042v-2.75l-3.171-4.064
		c-0.163-0.21-0.332-0.423-0.507-0.639c-0.175-0.216-0.372-0.42-0.586-0.613c-0.217-0.193-0.466-0.367-0.746-0.526
		c-0.279-0.157-0.606-0.277-0.981-0.359V88.947z"/>
</g>
</svg>
